<svg xmlns="http://www.w3.org/2000/svg" width="672" height="688" viewBox="0 0 672 688" version="1.1">
	<path d="M 661 9.954 C 650.726 12.081, 641.964 19.286, 637.368 29.390 C 634.922 34.766, 634.588 36.701, 634.584 45.500 C 634.583 51, 635.335 61.575, 636.257 69 C 637.179 76.425, 638.625 88.800, 639.471 96.500 C 640.317 104.200, 641.228 112.075, 641.495 114 C 641.763 115.925, 642.662 124.025, 643.493 132 C 644.324 139.975, 645.652 151.675, 646.444 158 C 648.412 173.720, 648.417 188.066, 646.456 192.758 C 645.608 194.790, 641.383 200.069, 637.069 204.489 C 628.900 212.858, 627.017 216.548, 627.006 224.210 C 627.002 226.861, 626.297 228.573, 624.536 230.210 C 622.284 232.303, 622.048 233.352, 621.786 242.430 L 621.500 252.360 618.500 253.183 C 616.850 253.635, 611.225 254.482, 606 255.064 C 563.701 259.781, 508.149 274.976, 467 293.085 C 457.708 297.174, 421.814 315.396, 418.175 317.871 C 416.704 318.871, 412.575 321.417, 409 323.529 C 396.844 330.708, 378.458 343.140, 366.914 351.986 C 364.391 353.919, 360.566 356.824, 358.414 358.443 C 356.261 360.062, 353.305 362.468, 351.844 363.790 C 348.679 366.654, 346.600 366.246, 342.007 361.856 C 339.312 359.281, 338.222 358.865, 335.381 359.326 C 332.448 359.802, 331.330 359.315, 327.258 355.791 C 320.428 349.879, 317.584 348.973, 306.751 349.256 C 298.096 349.482, 296.975 349.279, 291.512 346.497 C 287.490 344.449, 284.221 341.747, 281.226 337.997 C 278.812 334.974, 272.935 327.711, 268.168 321.857 C 263.401 316.004, 258.665 310.062, 257.643 308.652 C 256.622 307.242, 251.299 300.557, 245.813 293.795 C 240.328 287.033, 234.638 279.909, 233.170 277.964 C 223.245 264.818, 203.744 240.739, 199.927 236.916 C 197.410 234.394, 192.499 230.907, 189.015 229.166 C 183.527 226.423, 181.637 226, 174.878 226 C 163.473 226, 157.523 228.502, 150.516 236.245 C 146.079 241.148, 144.561 243.759, 142.898 249.343 C 140.344 257.918, 140.860 262.935, 145.227 272 C 149.814 281.524, 154.324 285.539, 207.554 327.500 C 250.785 361.578, 259.863 369.483, 263.304 376.052 C 266.019 381.232, 266.126 381.925, 265.482 390.136 C 264.890 397.703, 265.072 399.375, 266.952 403.636 C 268.133 406.311, 270.683 410.127, 272.620 412.115 C 275.714 415.290, 276.062 416.151, 275.489 419.206 C 274.910 422.295, 275.237 423.061, 278.418 426.062 C 280.388 427.920, 282 430.255, 282 431.250 C 282 432.246, 279.553 435.945, 276.563 439.470 C 273.572 442.995, 270.329 447.144, 269.356 448.690 C 268.384 450.235, 266.415 452.882, 264.982 454.570 C 261.442 458.742, 245.498 482.533, 239.185 493.065 C 225.158 516.463, 208.244 551.019, 201.527 570 C 200.262 573.575, 198.031 579.425, 196.570 583 C 189.672 599.878, 179.020 640.758, 174.944 666 C 173.745 673.425, 172.312 680.063, 171.760 680.750 C 170.970 681.732, 152.777 682, 86.878 682 L 3 682 3 685 L 3 688 337.500 688 L 672 688 672 685 L 672 682 654.500 682 C 635.824 682, 633.684 681.354, 641.256 678.005 C 646.560 675.659, 656.411 674.017, 665.250 674.008 L 672 674 672 668.500 L 672 663 663.947 663 C 649.810 663, 636.205 667.234, 619.588 676.805 C 613.661 680.219, 610.336 681.473, 606.338 681.805 C 599.453 682.376, 599.273 680.691, 605.620 675.103 C 619.549 662.842, 645.519 653.059, 664.250 653.017 L 672 653 672 639 L 672 625 667.676 625 C 662.410 625, 645.031 627.531, 635.539 629.680 C 621.965 632.754, 605.650 640.855, 591.254 651.670 C 581.501 658.997, 577.700 662.722, 569.533 672.959 C 566.462 676.808, 563.090 680.416, 562.040 680.978 C 559.752 682.203, 554.323 682.332, 553.610 681.178 C 551.418 677.632, 573.649 652.330, 588 642.038 C 610.285 626.056, 633.418 617.882, 660.750 616.332 L 672 615.694 672 482.698 L 672 349.702 649.250 350.269 C 571.708 352.202, 494.046 379.619, 427.496 428.555 C 409.921 441.478, 376.349 472.800, 363.244 488.500 C 360.948 491.250, 357.330 495.525, 355.204 498 C 340.974 514.567, 320.664 545.726, 309.241 568.516 C 302.467 582.033, 292 605.345, 292 606.916 C 292 607.484, 290.654 611.335, 289.010 615.475 C 283.836 628.500, 278.440 647.635, 273.381 670.902 C 271.414 679.945, 270.150 682, 266.551 682 C 262.362 682, 261.841 680.074, 263.546 670.891 C 265.166 662.162, 270.698 640.230, 274.105 629.024 C 285.003 593.185, 308.279 545.236, 327.512 519 C 328.924 517.075, 332.899 511.638, 336.347 506.917 C 339.795 502.197, 346.186 493.872, 350.551 488.417 C 359.244 477.552, 393.769 442.375, 401.093 436.921 C 403.619 435.039, 409.071 430.800, 413.208 427.500 C 421.487 420.897, 425.420 418.070, 441 407.530 C 450.501 401.102, 454.961 398.364, 467.500 391.256 C 471.722 388.863, 497.704 376.051, 504.500 373.011 C 536.571 358.664, 585.770 345.629, 619.500 342.541 C 639.211 340.736, 650.238 340.057, 660.250 340.031 L 672 340 672 305.843 L 672 271.686 649.250 272.315 C 618.386 273.168, 585.908 277.475, 556.726 284.585 C 534.104 290.097, 531.906 290.695, 524.269 293.420 C 520.292 294.839, 516.565 296, 515.987 296 C 514.968 296, 493.605 303.992, 483.500 308.154 C 475.790 311.330, 452.800 321.912, 450 323.574 C 448.625 324.390, 444.350 326.681, 440.500 328.664 C 417.381 340.573, 379.685 366.050, 361.391 382.130 C 358.032 385.084, 352.868 389.525, 349.917 392 C 338.608 401.485, 312.057 428.391, 300.084 442.500 C 282.290 463.468, 260.593 495.418, 244.398 524.500 C 239.220 533.799, 227.126 559.915, 221.939 573 C 210.129 602.794, 199.484 640.577, 194.751 669.500 C 193.339 678.131, 192.094 680.938, 189.376 681.621 C 182.563 683.330, 182.447 679.261, 188.504 651.295 C 194.614 623.090, 196.597 615.744, 204.044 593.742 C 213.176 566.759, 227.391 534.812, 239.970 513 C 242.349 508.875, 244.988 504.150, 245.836 502.500 C 250.918 492.601, 276.564 455.736, 286.922 443.440 C 288.340 441.757, 291.300 438.185, 293.500 435.502 C 312.832 411.924, 342.709 383.555, 371 361.910 C 422.413 322.576, 483.074 293.109, 544.500 277.629 C 569.251 271.391, 587.343 267.966, 606 265.986 C 611.775 265.374, 619.260 264.447, 622.633 263.927 C 626.006 263.407, 638.494 262.690, 650.383 262.332 L 672 261.681 672 135.341 L 672 9 668.250 9.115 C 666.188 9.178, 662.925 9.556, 661 9.954 M 650.388 28.980 C 649.227 29.449, 647.282 31.097, 646.067 32.642 C 643.241 36.235, 643.352 38.360, 648.974 88.500 C 649.529 93.450, 650.449 103.575, 651.019 111 C 651.589 118.425, 652.476 126.525, 652.991 129 C 653.506 131.475, 654.204 137.100, 654.543 141.500 C 655.285 151.140, 655.805 153.231, 657.335 152.724 C 658.111 152.467, 658.722 147.360, 659.166 137.419 C 660.613 104.982, 663.133 54.101, 663.643 47.025 C 664.301 37.892, 662.929 32.798, 659.071 30.050 C 656.010 27.871, 653.805 27.599, 650.388 28.980 M 641.309 211.231 C 637.882 214.978, 636 219.640, 636 224.383 C 636 227.958, 636.397 228.991, 637.962 229.488 C 641.997 230.769, 643.731 228.537, 644.341 221.276 C 644.654 217.549, 645.043 213.421, 645.205 212.101 C 645.603 208.862, 643.837 208.467, 641.309 211.231 M 170.695 230.700 C 167.514 231.524, 169.478 233.370, 175.034 234.777 C 178.003 235.529, 182.188 237.436, 184.334 239.014 C 189.055 242.486, 205.484 258.594, 212.820 266.945 C 217.890 272.716, 220 274.201, 220 272 C 220 271.450, 219.213 270.163, 218.250 269.139 C 217.287 268.115, 214.250 264.485, 211.500 261.071 C 203.391 251.005, 190.901 237.683, 187.154 235.103 C 183.807 232.798, 175.857 229.875, 173.591 230.116 C 172.991 230.180, 171.688 230.443, 170.695 230.700 M 157.110 256.396 C 154.278 257.965, 152.085 261.597, 152.035 264.800 C 151.978 268.532, 154.507 272.239, 160.017 276.500 C 162.861 278.700, 169.580 284.100, 174.946 288.500 C 180.313 292.900, 188.896 299.875, 194.020 304 C 199.144 308.125, 206.351 313.975, 210.035 317 C 213.719 320.025, 218.471 323.850, 220.595 325.500 C 222.718 327.150, 226.041 329.852, 227.978 331.505 C 235.886 338.251, 245.920 345.413, 246.563 344.771 C 246.809 344.524, 245.853 343.013, 244.439 341.412 C 243.024 339.810, 239.759 336.025, 237.183 333 C 234.608 329.975, 231.918 327.129, 231.207 326.676 C 230.495 326.223, 228.020 323.469, 225.707 320.556 C 223.393 317.644, 216.100 309.453, 209.500 302.355 C 202.900 295.256, 194.125 285.635, 190 280.974 C 167.728 255.809, 163.657 252.767, 157.110 256.396 M 223 277.794 C 223 278.323, 223.727 279.358, 224.615 280.096 C 226.013 281.256, 226.181 281.182, 225.865 279.551 C 225.489 277.607, 223 276.082, 223 277.794 M 599 366.018 C 589.925 367.577, 580.025 369.519, 577 370.334 C 537.807 380.899, 520.140 387.362, 492 401.431 C 463.716 415.573, 426 440.172, 426 444.478 C 426 445.218, 429.536 449.350, 433.859 453.661 C 443.932 463.709, 444.492 464.780, 442.976 471.099 C 440.339 482.091, 441.281 487.406, 447.454 496.369 C 452.252 503.335, 460.324 509.820, 483.500 525.328 C 504.285 539.236, 511.989 545.305, 516.145 551.042 C 517.643 553.109, 519.346 555.096, 519.931 555.457 C 521.267 556.283, 525.505 565.476, 526.920 570.617 C 528.899 577.812, 533.688 584.800, 538.226 587.115 C 543.655 589.885, 551.195 589.872, 557.317 587.083 C 559.832 585.937, 562.707 585, 563.706 585 C 564.725 585, 573.189 592.677, 583 602.500 C 592.613 612.125, 601.270 620, 602.237 620 C 603.204 620, 606.852 618.650, 610.344 617 C 613.836 615.350, 617.143 614, 617.692 614 C 618.241 614, 619.435 613.177, 620.345 612.171 C 621.798 610.566, 622 607.091, 622 583.743 C 622 555.276, 622.219 554, 627.104 554 C 634.010 554, 641.347 547.275, 643.130 539.310 C 644.510 533.141, 643.630 529.171, 638.737 519.500 C 634.181 510.494, 633.024 504.829, 633.021 491.500 C 633.018 482.014, 633.649 476.463, 636.034 465 C 644.284 425.349, 644.986 419.344, 642.661 408.350 C 640.700 399.078, 637.818 394.728, 630.760 390.393 C 622.689 385.435, 622 384.145, 622 373.977 C 622 364.947, 621.175 362.929, 617.550 363.093 C 616.423 363.143, 608.075 364.460, 599 366.018 M 273.667 390.667 C 271.423 392.910, 273.950 401.428, 278.437 406.750 C 281.733 410.658, 284.374 410.885, 286.622 407.454 C 288.251 404.968, 288.211 404.831, 284.895 401.625 C 283.028 399.820, 280.176 396.465, 278.558 394.171 C 275.589 389.961, 274.880 389.453, 273.667 390.667 M 644.701 457.760 C 644.413 459.267, 643.445 463.650, 642.550 467.500 C 641.655 471.350, 640.650 480.821, 640.317 488.546 C 639.645 504.119, 640.307 507, 644.557 507 C 648.605 507, 649.448 503.661, 648.140 492.814 C 647.522 487.691, 646.948 477.299, 646.865 469.721 C 646.721 456.623, 645.844 451.775, 644.701 457.760 M 359.867 510.820 C 354.574 513.024, 325.735 557.587, 316.391 578 C 315.006 581.025, 312.362 586.650, 310.514 590.500 C 308.666 594.350, 306.359 599.750, 305.386 602.500 C 304.414 605.250, 303.068 608.400, 302.396 609.500 C 301.725 610.600, 300.186 614.875, 298.977 619 C 297.768 623.125, 296.179 627.665, 295.447 629.088 C 293.904 632.088, 286.450 659.944, 284.204 671.104 C 283.362 675.286, 282.958 679.448, 283.306 680.354 C 283.887 681.870, 293.706 682, 407.410 682 C 494.315 682, 531.079 681.682, 531.546 680.926 C 531.914 680.330, 525.271 672.864, 516.605 664.137 C 508.022 655.493, 501 647.689, 501 646.793 C 501 645.897, 502.125 642.924, 503.500 640.187 C 509.971 627.304, 504.329 616.657, 488.005 610.943 C 483.489 609.362, 477.703 606.859, 475.147 605.380 C 466.149 600.173, 456.141 588.613, 441.451 566.458 C 419.961 534.048, 408.456 523.709, 395.701 525.345 C 393.390 525.642, 388.932 526.189, 385.793 526.562 L 380.086 527.241 371.125 518.620 C 366.197 513.879, 362.015 510.032, 361.832 510.070 C 361.649 510.109, 360.765 510.446, 359.867 510.820 M 470 523.827 C 470 524.416, 471.679 526.159, 473.730 527.699 C 475.782 529.240, 478.144 531.043, 478.980 531.706 C 479.816 532.369, 484.550 535.891, 489.500 539.532 C 500.462 547.595, 514.445 561.142, 517.113 566.285 C 518.193 568.367, 519.517 569.798, 520.056 569.465 C 521.533 568.552, 514.340 555.595, 509.154 549.826 C 504.778 544.960, 488.816 533.591, 479.195 528.488 C 476.613 527.119, 473.488 525.269, 472.250 524.377 C 470.993 523.471, 470 523.229, 470 523.827 M 255.765 535.750 C 252.095 539.908, 239.812 559.396, 236.611 566.142 C 226.619 587.193, 214.400 625.415, 208.362 654.500 C 206.077 665.505, 204.161 679.256, 204.712 680.691 C 205.467 682.659, 248.267 682.588, 249.903 680.616 C 250.535 679.855, 251.728 675.693, 252.553 671.366 C 255.039 658.344, 259.869 639.278, 264.173 625.500 C 270.067 606.629, 276.829 589.299, 286.025 569.500 C 287.813 565.650, 291.038 558.225, 293.192 553 C 295.345 547.775, 297.356 542.938, 297.661 542.250 C 297.965 541.563, 297.603 541.005, 296.857 541.011 C 292.891 541.043, 266.669 594.469, 256.983 622.250 C 252.810 634.222, 252.017 629.258, 256.065 616.500 C 257.112 613.200, 258.664 607.600, 259.513 604.056 C 261.463 595.922, 269.484 573.045, 272.622 566.668 C 273.930 564.010, 275 561.423, 275 560.919 C 275 560.415, 276.840 555.917, 279.088 550.923 C 286.831 533.727, 280.855 540.847, 269.791 562 C 266.194 568.875, 261.800 577.875, 260.025 582 C 254.209 595.516, 247.888 611.383, 245.784 617.750 C 244.648 621.188, 243.332 624, 242.859 624 C 241.625 624, 241.657 623.815, 245.437 608.984 C 250.174 590.398, 259.013 564.761, 264.912 552.500 C 266.500 549.200, 268.114 544.925, 268.500 543 C 269.128 539.865, 269.041 539.657, 267.668 541 C 264.751 543.855, 246 580.879, 246 583.784 C 246 584.258, 244.723 587.313, 243.162 590.573 C 241.601 593.833, 239.069 599.980, 237.534 604.234 C 235.999 608.487, 234.070 612.527, 233.246 613.211 C 231.938 614.297, 231.837 613.886, 232.456 609.977 C 234.207 598.917, 244.021 568.835, 250.717 554 C 252.876 549.218, 259 534.643, 259 534.288 C 259 533.385, 257.092 534.247, 255.765 535.750 M 635.901 576.250 C 635.846 587.388, 635.780 599.096, 635.753 602.269 C 635.727 605.442, 635.975 608.309, 636.306 608.639 C 636.636 608.970, 638.053 608.953, 639.453 608.601 L 642 607.962 642 581.981 L 642 556 639 556 L 636 556 635.901 576.250 M 448.991 565.983 C 451.134 569.988, 465.632 588.520, 469.973 592.804 C 475.227 597.990, 478.326 599.431, 481.065 597.965 C 484.685 596.028, 483.173 593.340, 473.750 584.970 C 468.663 580.450, 461.392 573.883, 457.593 570.376 C 450.621 563.939, 446.873 562.026, 448.991 565.983 M 511.667 635.667 C 509.915 637.418, 512.131 640.219, 527.065 655.127 C 537.977 666.019, 543.617 670.977, 544.647 670.582 C 545.481 670.262, 546.352 670, 546.582 670 C 546.812 670, 546.999 669.212, 546.999 668.250 C 546.997 666.129, 515.942 635, 513.828 635 C 513.006 635, 512.033 635.300, 511.667 635.667" stroke="none" fill="#000000" fill-rule="evenodd"/>
</svg>